<svg width="18" height="18" viewBox="0 0 18 18" fill="none" xmlns="http://www.w3.org/2000/svg">
<g clip-path="url(#clip0_563_1171)">
<path d="M12.2149 12.2149C12.3942 12.1769 12.5701 12.1299 12.7423 12.0745C13.279 11.9021 13.8466 11.8027 14.3993 11.9132L15.0291 12.0392C15.7288 12.1791 16.3458 11.5622 16.2058 10.8625L16.0799 10.2327C15.9693 9.67995 16.0688 9.1123 16.2412 8.57568C16.4093 8.05284 16.5 7.49535 16.5 6.91667C16.5 3.92512 14.0749 1.5 11.0833 1.5C8.47988 1.5 6.30542 3.33672 5.78505 5.78505M12.2149 12.2149C12.2925 11.85 12.3333 11.4714 12.3333 11.0833C12.3333 8.09179 9.90821 5.66667 6.91667 5.66667C6.52858 5.66667 6.15002 5.70748 5.78505 5.78505M12.2149 12.2149C11.6946 14.6633 9.52012 16.5 6.91667 16.5C6.33798 16.5 5.78049 16.4093 5.25765 16.2412C4.72104 16.0688 4.15339 15.9693 3.60068 16.0799L2.97087 16.2058C2.27115 16.3458 1.65423 15.7288 1.79417 15.0291L1.92014 14.3993C2.03068 13.8466 1.93125 13.279 1.75878 12.7423C1.59075 12.2195 1.5 11.662 1.5 11.0833C1.5 8.47988 3.33672 6.30542 5.78505 5.78505" stroke="#317487" stroke-width="2" stroke-linecap="round" stroke-linejoin="round"/>
</g>
<defs>
<clipPath id="clip0_563_1171">
<rect width="18" height="18" fill="white"/>
</clipPath>
</defs>
</svg>
