<svg width="18" height="18" viewBox="0 0 18 18" fill="none" xmlns="http://www.w3.org/2000/svg">
<path d="M12.75 5.99989V2.99998C12.75 1.88491 11.5765 1.15967 10.5792 1.65834L3.49377 5.20105C2.73151 5.58218 2.25 6.53823 2.25 7.39047V8.99989M4.5 16.4999H13.5C14.7426 16.4999 15.75 15.4925 15.75 14.2499V8.24989C15.75 7.00725 14.7426 5.99989 13.5 5.99989H3.75C2.92157 5.99989 2.25 6.67147 2.25 7.49989V14.2499C2.25 15.4925 3.25736 16.4999 4.5 16.4999ZM12.75 11.2499C12.75 11.6641 12.4142 11.9999 12 11.9999C11.5858 11.9999 11.25 11.6641 11.25 11.2499C11.25 10.8357 11.5858 10.4999 12 10.4999C12.4142 10.4999 12.75 10.8357 12.75 11.2499Z" stroke="#895706" stroke-width="2" stroke-linecap="round"/>
</svg>
