<svg width="635" height="363" viewBox="0 0 635 363" fill="none" xmlns="http://www.w3.org/2000/svg">
<path fill-rule="evenodd" clip-rule="evenodd" d="M324.868 316.897C280.353 297.174 257.152 295.274 220.311 268.288C181.967 240.201 95.0736 243.125 36.8952 150.05C-33.1732 99.624 18.9703 95.916 20.828 48.2057C23.0343 -8.46078 75.9063 4.31839 104.524 0.411745C127.917 -2.78174 276.321 77.7809 300.606 75.4982C335.117 72.2541 357.433 49.2955 400.955 64.4525C442.69 78.9876 462.183 114.795 489.792 141.385C513.091 163.824 529.693 185.712 550.455 208.437C578.748 239.405 629.342 271.504 634.447 299.718C639.537 327.846 606.771 341.406 576.403 351.838C546.255 362.195 507.054 365.124 462.196 358.892C418.184 352.779 370.606 337.162 324.868 316.897Z" fill="#00D29D"/>
</svg>
