<svg width="587" height="489" viewBox="0 0 587 489" fill="none" xmlns="http://www.w3.org/2000/svg">
<path fill-rule="evenodd" clip-rule="evenodd" d="M139.858 100.943C183.533 67.6223 230.757 43.8442 277.934 27.2265C318.801 12.8314 354.148 15.8563 392.575 11.926C432.032 7.89037 475.845 -6.48193 507.484 3.74815C541.841 14.8569 565.359 39.5868 577.363 71.6744C590.212 106.021 589.432 147.902 578.122 192.566C565.668 241.748 548.413 294.125 509.086 341.301C468.608 389.859 413.425 430.009 358.16 456.434C304.519 482.083 249.501 493.055 204.446 486.968C162.838 481.346 139.041 452.543 117.394 423.904C98.9338 399.481 104.84 359.791 88.5566 333.646C65.2232 296.181 -10.4995 293.04 1.62884 238.025C12.9951 186.467 87.3201 141.025 139.858 100.943Z" fill="#7E13AB"/>
</svg>
