<svg width="587" height="489" viewBox="0 0 587 489" fill="none" xmlns="http://www.w3.org/2000/svg">
<path fill-rule="evenodd" clip-rule="evenodd" d="M139.858 100.943C183.533 67.6225 230.757 43.8445 277.934 27.2267C318.802 12.8316 354.148 15.8566 392.575 11.9263C432.032 7.89059 475.846 -6.48168 507.485 3.74836C541.841 14.8571 565.359 39.5871 577.363 71.6747C590.213 106.021 589.432 147.902 578.122 192.566C565.668 241.748 548.413 294.125 509.087 341.301C468.608 389.86 413.425 430.009 358.16 456.434C304.519 482.083 249.502 493.056 204.446 486.968C162.838 481.347 139.041 452.543 117.394 423.904C98.934 399.482 104.84 359.792 88.5568 333.646C65.2234 296.181 -10.4993 293.04 1.62911 238.025C12.9954 186.467 87.3204 141.025 139.858 100.943Z" fill="#7E13AB"/>
</svg>
