<svg width="635" height="363" viewBox="0 0 635 363" fill="none" xmlns="http://www.w3.org/2000/svg">
<path fill-rule="evenodd" clip-rule="evenodd" d="M324.868 316.898C280.353 297.175 257.152 295.275 220.311 268.289C181.967 240.202 95.0735 243.126 36.8951 150.051C-33.1733 99.6248 18.9702 95.9167 20.8278 48.2064C23.0341 -8.46009 75.9061 4.31907 104.523 0.412448C127.917 -2.78104 276.321 77.7816 300.606 75.4989C335.117 72.2548 357.433 49.2961 400.955 64.4532C442.69 78.9883 462.183 114.796 489.792 141.386C513.091 163.825 529.693 185.713 550.455 208.438C578.748 239.406 629.342 271.504 634.447 299.718C639.537 327.846 606.771 341.406 576.403 351.839C546.255 362.196 507.054 365.124 462.196 358.893C418.184 352.779 370.606 337.163 324.868 316.898Z" fill="#00D29D"/>
</svg>
