<svg width="364" height="787" viewBox="0 0 364 787" fill="none" xmlns="http://www.w3.org/2000/svg">
<path fill-rule="evenodd" clip-rule="evenodd" d="M0.594388 427.431C-3.97501 348.045 21.3261 289.052 34.659 221.863C47.2018 158.656 54.1401 83.8345 76.7397 43.7111C99.5024 3.29807 130.043 1.25072 159.208 0.738567C188.067 0.231782 219.188 -2.0269 244.797 40.7598C269.881 82.6696 276.9 165.747 294.862 227.387C313.264 290.535 341.387 336.029 351.93 408.402C363.517 487.943 369.073 578.85 356.42 649.97C343.806 720.875 315.537 770.283 284.957 784.847C256.58 798.362 228.046 728.766 198.445 725.21C171.793 722.007 150.014 784.095 123.626 765.464C96.5591 746.355 77.6715 680.264 57.9208 625.998C35.5627 564.568 5.16424 506.824 0.594388 427.431Z" fill="#F89C1C"/>
</svg>
