<svg width="364" height="787" viewBox="0 0 364 787" fill="none" xmlns="http://www.w3.org/2000/svg">
<path fill-rule="evenodd" clip-rule="evenodd" d="M0.594119 427.428C-3.97527 348.042 21.3258 289.05 34.6588 221.861C47.2016 158.654 54.1398 83.832 76.7394 43.7086C99.5021 3.29557 130.043 1.24822 159.208 0.736065C188.067 0.22922 219.188 -2.0294 244.797 40.7573C269.881 82.667 276.9 165.744 294.862 227.384C313.264 290.532 341.387 336.027 351.93 408.4C363.516 487.94 369.073 578.847 356.42 649.968C343.805 720.872 315.536 770.28 284.956 784.845C256.579 798.36 228.046 728.763 198.445 725.207C171.793 722.005 150.014 784.092 123.625 765.462C96.5588 746.352 77.6712 680.262 57.9205 625.996C35.5624 564.566 5.16397 506.822 0.594119 427.428Z" fill="#F89C1C"/>
</svg>
