<svg width="20" height="20" viewBox="0 0 20 20" fill="none" xmlns="http://www.w3.org/2000/svg">
<g clip-path="url(#clip0_1068_1757)">
<path d="M1.66675 5.4165H4.75029C5.40894 5.4165 6.00581 5.02861 6.27331 4.42673L7.06018 2.65627C7.32769 2.05439 7.92456 1.6665 8.5832 1.6665H11.417C12.0756 1.6665 12.6725 2.05439 12.94 2.65627L13.7269 4.42673C13.9944 5.02861 14.5912 5.4165 15.2499 5.4165H18.3334M2.50008 5.4165H17.5001M3.33341 5.4165H16.6667L15.2814 16.1531C15.1205 17.3998 14.059 18.3332 12.8019 18.3332H7.19823C5.9412 18.3332 4.87965 17.3998 4.71878 16.1531L3.33341 5.4165Z" stroke="#AFB0B0" stroke-width="2" stroke-linecap="round" stroke-linejoin="round"/>
</g>
<defs>
<clipPath id="clip0_1068_1757">
<rect width="20" height="20" fill="white"/>
</clipPath>
</defs>
</svg>
