<svg width="264" height="30" viewBox="0 0 264 30" fill="none" xmlns="http://www.w3.org/2000/svg">
<path fill-rule="evenodd" clip-rule="evenodd" d="M74.9314 12.7431L86.7435 0.930674C87.9852 -0.310225 90.0159 -0.310225 91.257 0.930674L103.069 12.7431C104.31 13.9842 104.31 16.0152 103.069 17.2564L91.2565 29.0688C90.0154 30.3104 87.9842 30.3104 86.7425 29.0688L74.9303 17.2569C73.6892 16.0157 73.6902 13.9845 74.9314 12.7431ZM76.1082 13.9079L87.9093 2.10682C88.5094 1.5067 89.4927 1.5067 90.0928 2.10682L101.894 13.9079C102.494 14.508 102.494 15.4912 101.893 16.092L90.0923 27.8921C89.4922 28.4922 88.5094 28.4922 87.9087 27.8921L76.108 16.092C75.5073 15.4914 75.5076 14.5083 76.1082 13.9079Z" fill="#F59D0E"/>
<path d="M91.0079 19.2895C90.7979 19.498 90.6926 19.7145 90.6926 19.9392C90.6926 20.1827 90.7887 20.3947 90.9813 20.5762C91.174 20.7587 91.393 20.85 91.6384 20.85C91.8658 20.85 92.094 20.7545 92.322 20.563L96.843 16.2187C97.1231 15.9927 97.2639 15.7505 97.2639 15.4905C97.2639 15.1955 97.1152 14.9182 96.8164 14.6577L92.2693 10.3385C92.0593 10.113 91.8137 10 91.5336 10C91.3062 10 91.104 10.0827 90.9297 10.2472C90.7539 10.4117 90.6665 10.607 90.6665 10.8322C90.6665 11.0402 90.7718 11.266 90.9819 11.5085L95.2139 15.4632L91.0079 19.2895Z" fill="#00D29D"/>
<path d="M84.3414 19.2895C84.1314 19.498 84.0261 19.7145 84.0261 19.9392C84.0261 20.1827 84.1222 20.3947 84.3148 20.5762C84.5075 20.7587 84.7265 20.85 84.9719 20.85C85.1993 20.85 85.4275 20.7545 85.6555 20.563L90.1765 16.2187C90.4566 15.9927 90.5974 15.7505 90.5974 15.4905C90.5974 15.1955 90.4487 14.9182 90.1499 14.6577L85.6028 10.3385C85.3928 10.113 85.1472 10 84.8671 10C84.6397 10 84.4375 10.0827 84.2632 10.2472C84.0874 10.4117 84 10.607 84 10.8322C84 11.0402 84.1053 11.266 84.3154 11.5085L88.5474 15.4632L84.3419 19.288L84.3424 19.2885L84.3414 19.2895Z" fill="#00D29D"/>
<path d="M112.032 8.804V15.932C112.032 18.428 113.688 19.7 116.472 19.7C119.448 19.7 121.752 18.116 121.8 15.26V8.804H123.912V21.5H121.8V19.052C120.624 20.78 118.56 21.692 115.992 21.692C112.296 21.692 109.92 19.652 109.92 16.268V8.804H112.032ZM127.342 15.164C127.342 10.988 130.174 8.612 134.374 8.612C136.894 8.612 138.91 9.5 140.062 11.132V3.5H142.174V21.5H140.062V19.172C138.91 20.804 136.87 21.692 134.35 21.692C130.174 21.692 127.342 19.316 127.342 15.164ZM140.038 15.164C140.038 12.164 137.854 10.604 134.734 10.604C131.638 10.604 129.478 12.164 129.478 15.164C129.478 18.164 131.638 19.724 134.734 19.724C137.854 19.724 140.038 18.164 140.038 15.164ZM151.168 21.5L144.304 8.804H146.656L152.464 19.652L158.296 8.804H160.624L153.76 21.5H151.168ZM171.7 4.7V25.172H169.828V4.7H171.7ZM195.769 13.484C195.769 16.532 193.177 18.332 189.313 18.332C188.161 18.332 186.745 18.092 185.881 17.78C185.161 17.9 184.489 18.308 184.489 18.86C184.489 19.724 186.361 19.844 190.105 19.868C194.545 19.916 197.257 20.588 197.257 23.132C197.257 25.628 194.425 27.02 188.929 27.02C184.993 27.02 181.921 26.036 181.921 23.924C181.921 22.796 182.641 21.884 183.913 21.284C182.833 20.948 182.281 20.3 182.281 19.412C182.281 18.356 183.313 17.588 184.633 17.108C183.433 16.292 182.809 15.044 182.809 13.484C182.809 10.412 185.425 8.612 189.265 8.612C191.161 8.612 192.841 9.14 193.969 9.932C194.233 8.948 195.025 8.204 196.369 8.204C196.681 8.204 197.041 8.252 197.401 8.3L197.737 10.22C197.425 10.1 197.017 10.028 196.657 10.028C195.865 10.028 195.217 10.316 195.073 11.156C195.481 11.804 195.769 12.596 195.769 13.484ZM184.873 13.484C184.873 15.572 186.673 16.556 189.313 16.556C191.857 16.556 193.681 15.572 193.681 13.484C193.681 11.42 191.857 10.412 189.265 10.412C186.673 10.412 184.873 11.42 184.873 13.484ZM189.505 25.22C192.577 25.22 195.025 24.788 195.025 23.276C195.025 21.86 192.121 21.716 188.809 21.716C187.897 21.716 186.433 21.692 185.737 21.668C184.777 21.884 184.105 22.58 184.105 23.42C184.105 24.74 186.193 25.22 189.505 25.22ZM202.085 15.188V21.5H199.973V8.804H202.085V11.276C203.189 9.572 205.133 8.612 207.509 8.612C207.893 8.612 208.493 8.636 208.853 8.66L209.237 11.036C208.853 10.892 207.989 10.772 207.365 10.772C204.317 10.772 202.085 12.188 202.085 15.188ZM225.879 15.164C225.879 19.316 222.831 21.716 218.271 21.716C213.711 21.716 210.639 19.316 210.639 15.164C210.639 11.012 213.711 8.612 218.247 8.612C222.831 8.612 225.879 11.012 225.879 15.164ZM212.775 15.164C212.775 18.164 215.007 19.724 218.271 19.724C221.511 19.724 223.743 18.164 223.743 15.164C223.743 12.164 221.511 10.604 218.247 10.604C215.007 10.604 212.775 12.164 212.775 15.164ZM231.165 8.804V15.932C231.165 18.428 232.821 19.7 235.605 19.7C238.581 19.7 240.885 18.116 240.933 15.26V8.804H243.045V21.5H240.933V19.052C239.757 20.78 237.693 21.692 235.125 21.692C231.429 21.692 229.053 19.652 229.053 16.268V8.804H231.165ZM262.243 15.164C262.243 19.316 259.411 21.716 255.235 21.716C252.715 21.716 250.675 20.828 249.523 19.196V26.804H247.411V8.804H249.523V11.156C250.675 9.524 252.715 8.612 255.235 8.612C259.411 8.612 262.243 11.012 262.243 15.164ZM249.547 15.164C249.547 18.164 251.755 19.724 254.851 19.724C257.947 19.724 260.107 18.164 260.107 15.164C260.107 12.164 257.947 10.604 254.851 10.604C251.755 10.604 249.547 12.164 249.547 15.164Z" fill="white"/>
<path d="M7.056 23.228L7.704 21.98C5.208 17.612 2.664 13.196 0.168 8.804H2.544L8.808 19.724L14.232 8.804H16.536L8.976 23.756C7.848 25.964 6.36 27.02 4.584 27.02C4.152 27.02 3.72 26.948 3.384 26.852C3.264 26.156 3.12 25.484 2.976 24.788C3.36 24.884 3.888 24.956 4.248 24.956C5.496 24.956 6.336 24.452 7.056 23.228ZM21.0069 8.804V19.7H30.5109V8.804H32.6229V19.7H34.9509V25.268H32.8389V21.5H18.8949V8.804H21.0069ZM49.1923 17.66L50.8963 18.86C49.6003 20.684 47.2243 21.716 44.2723 21.716C39.6403 21.716 36.5683 19.316 36.5683 15.164C36.5683 11.012 39.6643 8.612 44.2243 8.612C47.1523 8.612 49.5283 9.596 50.8003 11.396L49.0723 12.644C48.1603 11.3 46.3843 10.604 44.2243 10.604C40.9843 10.604 38.7043 12.164 38.7043 15.164C38.7043 18.164 41.0083 19.724 44.2723 19.724C46.4563 19.724 48.2563 19.004 49.1923 17.66ZM53.1448 15.284V12.956C53.1448 7.58 55.8328 4.964 60.7048 4.94C64.3048 4.916 65.2408 4.46 65.2408 3.5H67.1608C67.0888 6.14 65.4088 6.812 60.6808 6.98C57.1288 7.1 55.2088 8.54 54.8968 12.02C55.9768 10.268 58.0408 9.188 60.6808 9.188C65.0248 9.188 67.9528 11.468 67.9528 15.452C67.9528 19.436 64.9768 21.692 60.5608 21.692C56.1448 21.692 53.1448 19.412 53.1448 15.284ZM55.2808 15.452C55.2808 18.284 57.3928 19.748 60.5608 19.748C63.7048 19.748 65.8168 18.284 65.8168 15.452C65.8168 12.62 63.7048 11.204 60.5368 11.204C57.3928 11.204 55.2808 12.62 55.2808 15.452Z" fill="white"/>
</svg>
