<svg width="24" height="24" viewBox="0 0 24 24" fill="none" xmlns="http://www.w3.org/2000/svg">
<g clip-path="url(#clip0_713_1799)">
<path d="M15.3605 20.8889C13.4776 22.3616 10.5404 22.3791 8.63951 20.8889M4.78283 11.7092L4.39213 12.3551C3.30351 14.1548 4.61044 16.4444 6.72634 16.4444H17.2737C19.3896 16.4444 20.6965 14.1548 19.6079 12.3551L19.2172 11.7092C18.89 11.1683 18.6802 10.5656 18.6014 9.93965L18.2955 7.51266C17.8986 4.36334 15.1997 2 12 2C8.80032 2 6.10136 4.36334 5.70449 7.51266L5.39864 9.93965C5.31977 10.5656 5.11002 11.1683 4.78283 11.7092Z" stroke="white" stroke-width="2" stroke-linecap="round" stroke-linejoin="round"/>
</g>
<defs>
<clipPath id="clip0_713_1799">
<rect width="24" height="24" rx="1" fill="white"/>
</clipPath>
</defs>
</svg>
